<svg xmlns="http://www.w3.org/2000/svg" width="907" height="674" viewBox="0 0 907 674" version="1.1">
	<path d="M 381.200 29.200 C 380.315 30.085, 380 39.022, 380 63.200 C 380 94.119, 379.897 96, 378.200 96 C 377.210 96, 375.973 95.628, 375.450 95.174 C 374.928 94.720, 372.475 93.738, 370 92.994 C 367.525 92.249, 365.050 91.348, 364.500 90.992 C 363.950 90.636, 361.250 89.557, 358.500 88.595 C 352.988 86.666, 349.406 85.228, 346.764 83.883 C 345.809 83.397, 344.148 83, 343.073 83 C 341.998 83, 340.840 82.550, 340.500 82 C 340.160 81.450, 339.060 81, 338.055 81 C 337.051 81, 334.940 80.328, 333.364 79.506 C 331.789 78.685, 329.488 78.010, 328.250 78.006 L 326 78 326 235.441 C 326 348.460, 326.309 393.073, 327.095 393.559 C 327.698 393.931, 329.160 393.803, 330.345 393.274 C 331.530 392.745, 336.550 391.075, 341.500 389.564 C 346.450 388.052, 351.281 386.407, 352.236 385.908 C 353.191 385.408, 354.735 385, 355.665 385 C 357.557 385, 363.574 383.223, 366.236 381.877 C 367.191 381.395, 369.014 381, 370.286 381 C 371.559 381, 373.028 380.589, 373.550 380.086 C 374.073 379.584, 375.625 379.022, 377 378.836 L 379.500 378.500 380 397 L 380.500 415.500 383.500 415.393 C 386.064 415.301, 406.405 408.704, 412.500 405.988 C 413.600 405.498, 418.100 403.879, 422.500 402.391 C 426.900 400.902, 430.927 399.305, 431.450 398.842 C 431.972 398.379, 433.660 398, 435.200 398 C 436.740 398, 438 397.550, 438 397 C 438 396.450, 438.906 396, 440.014 396 C 441.121 396, 442.809 395.567, 443.764 395.038 C 444.719 394.508, 448.875 392.924, 453 391.517 C 457.125 390.111, 461.400 388.570, 462.500 388.094 C 463.600 387.618, 466.525 386.648, 469 385.940 C 471.475 385.232, 473.927 384.280, 474.450 383.826 C 474.972 383.372, 476.216 383, 477.214 383 C 478.211 383, 479.809 382.578, 480.764 382.062 C 481.719 381.546, 485.875 379.943, 490 378.500 C 494.125 377.057, 498.281 375.454, 499.236 374.938 C 500.191 374.422, 502.118 374, 503.518 374 C 506.369 374, 507.882 371.482, 506.101 369.701 C 505.083 368.683, 495.420 365.825, 488 364.347 C 486.625 364.073, 484.600 363.467, 483.500 363 C 482.400 362.533, 480.150 361.872, 478.500 361.531 C 470.685 359.915, 468.326 359.257, 466.135 358.078 C 463.148 356.472, 456.698 357.676, 449.764 361.134 C 448.809 361.610, 447.148 362, 446.073 362 C 444.998 362, 443.840 362.450, 443.500 363 C 443.160 363.550, 441.634 364, 440.108 364 C 438.582 364, 437.029 364.304, 436.657 364.676 C 436.285 365.048, 432.861 366.342, 429.049 367.550 C 423.168 369.415, 422.033 369.527, 421.559 368.292 C 421.251 367.492, 421 366.681, 421 366.491 C 421 365.760, 427.398 363, 429.095 363 C 430.078 363, 431.129 362.600, 431.432 362.110 C 431.734 361.621, 433.448 360.968, 435.241 360.658 C 442.906 359.334, 445 358.705, 446.080 357.404 C 448.028 355.056, 446.372 353, 442.531 353 C 440.589 353, 439 352.550, 439 352 C 439 351.450, 438.019 351, 436.821 351 C 434.770 351, 431.110 350.011, 424.737 347.734 C 423.218 347.191, 421.752 345.791, 421.481 344.623 C 421.209 343.456, 421.102 298.175, 421.243 244 L 421.500 145.500 424 145.836 C 425.375 146.022, 426.927 146.584, 427.450 147.086 C 428.700 148.288, 434.562 148.258, 436.764 147.038 C 440.975 144.704, 461.727 134.997, 462.569 134.967 C 463.081 134.948, 464.609 134.011, 465.964 132.883 L 468.429 130.832 465.964 128.938 C 464.609 127.897, 462.514 127.034, 461.309 127.022 C 460.104 127.010, 458.840 126.550, 458.500 126 C 458.160 125.450, 457.002 125, 455.927 125 C 454.852 125, 453.191 124.616, 452.236 124.147 C 447.695 121.916, 443.147 120.031, 439.500 118.868 C 437.300 118.166, 435.073 117.234, 434.550 116.796 C 434.028 116.358, 432.875 116, 431.988 116 C 429.326 116, 422.288 112.192, 421.590 110.374 C 420.864 108.482, 420.935 85.937, 421.671 84.732 C 421.929 84.310, 425.371 85.589, 429.320 87.575 C 433.269 89.561, 437.175 91.523, 438 91.937 C 438.825 92.350, 440.400 93.185, 441.500 93.792 C 443.339 94.808, 468.077 106.818, 489.344 117.020 L 498.188 121.262 502.344 118.954 C 504.630 117.685, 507.175 116.310, 508 115.899 C 508.825 115.488, 514.225 112.811, 520 109.951 C 534.972 102.535, 537.279 101.042, 536.050 99.560 C 535.100 98.416, 528.109 94.749, 523.500 92.978 C 521.164 92.080, 512.420 88.048, 498.817 81.594 C 493.491 79.067, 488.910 77, 488.636 77 C 488.184 77, 483.913 75.042, 461 64.329 C 456.875 62.401, 451.700 60.018, 449.500 59.035 C 447.300 58.052, 441.087 55.167, 435.693 52.624 C 430.299 50.081, 425.642 48, 425.345 48 C 425.047 48, 420.460 45.937, 415.152 43.416 C 409.843 40.894, 403.475 37.916, 401 36.798 C 398.525 35.680, 393.440 33.243, 389.701 31.382 C 381.809 27.456, 382.712 27.688, 381.200 29.200 M 572 94.950 C 571.175 95.430, 568.025 96.945, 565 98.317 C 561.975 99.688, 556.491 102.202, 552.813 103.905 C 549.135 105.607, 545.890 107, 545.601 107 C 545.312 107, 540.896 108.981, 535.788 111.402 C 530.679 113.823, 524.485 116.635, 522.021 117.652 C 519.558 118.668, 515.088 120.737, 512.088 122.250 C 509.088 123.763, 506.041 125, 505.317 125 C 504.593 125, 504 125.675, 504 126.500 C 504 127.325, 503.562 128, 503.026 128 C 502.405 128, 502.060 148.815, 502.075 185.418 C 502.093 231.708, 502.353 243.048, 503.417 243.931 C 504.331 244.690, 515.877 244.945, 541.118 244.763 L 577.500 244.500 577.500 169.500 C 577.500 95.237, 577.480 94.498, 575.500 94.288 C 574.400 94.172, 572.825 94.469, 572 94.950 M 360 235.393 C 360 300.077, 360.231 353, 360.514 353 C 360.796 353, 361.809 352.587, 362.764 352.083 C 363.719 351.579, 367.087 350.412, 370.248 349.491 C 373.410 348.569, 376.249 347.407, 376.557 346.908 C 376.866 346.408, 378.044 346, 379.176 346 C 380.821 346, 381.113 345.550, 380.630 343.750 C 380.299 342.512, 380.021 293.089, 380.014 233.919 L 380 126.338 377.250 125.052 C 375.738 124.345, 373.719 123.369, 372.764 122.883 C 371.809 122.397, 370.346 122, 369.514 122 C 368.681 122, 368 121.602, 368 121.117 C 368 120.631, 366.988 120.014, 365.750 119.745 C 364.512 119.477, 362.712 118.926, 361.750 118.522 C 360.089 117.823, 360 123.773, 360 235.393 M 483 136.132 C 480.525 137.250, 477.719 138.577, 476.764 139.082 C 475.809 139.587, 474.405 140, 473.646 140 C 472.886 140, 469.189 141.575, 465.430 143.500 C 461.671 145.425, 458.011 147, 457.298 147 C 456.584 147, 456 147.450, 456 148 C 456 148.550, 455.094 149, 453.986 149 C 452.879 149, 451.191 149.423, 450.236 149.941 C 449.281 150.458, 446.481 151.696, 444.012 152.691 C 441.544 153.686, 437.269 155.625, 434.512 157 L 429.500 159.500 429.237 201 C 428.995 239.127, 429.112 242.602, 430.678 243.750 C 431.946 244.680, 439.603 245, 460.609 245 C 476.134 245, 489.548 244.727, 490.418 244.393 C 491.834 243.850, 492 238.026, 492 188.893 L 492 134 489.750 134.050 C 488.512 134.077, 485.475 135.014, 483 136.132 M 503.795 256.746 C 502.329 258.514, 502.511 356.218, 503.985 358.972 C 504.614 360.147, 506.083 361, 507.476 361 C 508.799 361, 510.160 361.450, 510.500 362 C 510.840 362.550, 512.640 363, 514.500 363 C 516.360 363, 518.129 363.400, 518.432 363.890 C 518.734 364.379, 520.448 365.007, 522.241 365.287 C 526.868 366.007, 542.167 370.062, 544.236 371.116 C 545.191 371.602, 547.302 372, 548.927 372 C 550.552 372, 552.160 372.450, 552.500 373 C 552.840 373.550, 554.854 374, 556.976 374 C 559.097 374, 560.983 374.338, 561.167 374.751 C 561.350 375.164, 564.578 376.310, 568.341 377.298 C 573.638 378.689, 575.501 378.829, 576.599 377.918 C 577.798 376.923, 577.976 367.501, 577.758 316.621 L 577.500 256.500 541.164 256 C 512.883 255.611, 504.599 255.776, 503.795 256.746 M 430.250 256.662 C 429.279 257.054, 429 266.155, 429 297.428 C 429 342.003, 428.720 340.114, 435.500 341.266 C 437.150 341.546, 440.975 342.479, 444 343.340 C 460.581 348.056, 464.891 349.161, 468.773 349.686 C 471.123 350.005, 473.287 350.656, 473.582 351.133 C 473.877 351.610, 475.415 352, 477 352 C 478.585 352, 480.123 352.389, 480.417 352.865 C 481.280 354.262, 488.118 355.007, 490.141 353.925 C 491.913 352.976, 492 350.700, 492 305.072 C 492 262.354, 491.830 257.149, 490.418 256.607 C 488.532 255.883, 432.053 255.935, 430.250 256.662 M 196.694 472.842 C 195.629 473.269, 193.941 476.274, 192.581 480.167 C 189.464 489.086, 174.257 518.304, 170.375 522.831 C 167.540 526.137, 166.988 526.382, 164.409 525.475 C 162.484 524.798, 161.321 523.513, 160.801 521.488 C 160.379 519.845, 159.540 516.516, 158.936 514.092 C 158.332 511.668, 156.553 508.399, 154.983 506.829 L 152.127 503.974 155.360 502.623 C 159.614 500.846, 163.758 495.809, 164.582 491.415 C 166.206 482.757, 162.297 476.068, 154.461 474.094 C 148.306 472.545, 121.170 472.690, 118.009 474.290 C 114.680 475.974, 114.330 478.658, 117.061 481.565 C 119.150 483.789, 119.259 484.548, 118.663 492.726 C 117.981 502.075, 115.539 517.535, 113.958 522.513 C 113.432 524.169, 111.989 525.969, 110.751 526.513 C 109.390 527.109, 108.379 528.550, 108.193 530.154 C 107.930 532.429, 108.411 532.981, 111.574 534.024 C 116.116 535.523, 130.258 534.861, 132.444 533.046 C 134.598 531.259, 134.388 528.661, 131.909 526.418 C 130.045 524.731, 129.889 523.818, 130.470 518.013 C 131.410 508.624, 131.697 508, 135.067 508 C 139.404 508, 141.601 510.930, 143.424 519.146 C 144.321 523.191, 145.535 527.706, 146.120 529.180 C 147.625 532.968, 153.196 535.405, 158.389 534.546 C 160.650 534.172, 163.400 533.982, 164.500 534.125 C 170.658 534.921, 180.883 534.342, 182.364 533.113 C 184.630 531.232, 184.409 528.515, 181.852 526.817 C 180.015 525.598, 179.845 524.963, 180.680 522.445 C 181.940 518.651, 185.218 517.033, 191.685 517.015 C 198.985 516.994, 201.592 518.208, 202.346 521.981 C 202.864 524.568, 202.508 525.519, 200.319 527.402 C 194.724 532.214, 200.160 535.456, 212.590 534.720 C 225.365 533.964, 227.953 531.346, 221.641 525.565 C 218.104 522.325, 217.534 520.423, 210.016 486.763 C 208.820 481.408, 207.090 476.156, 206.171 475.093 C 204.286 472.913, 199.410 471.754, 196.694 472.842 M 228.553 473.230 C 227.221 473.976, 223.632 482.357, 222.583 487.171 C 220.958 494.635, 226.422 495.202, 231.525 488.098 C 233.462 485.402, 235.748 482.927, 236.605 482.598 C 238.832 481.744, 242.795 481.859, 243.374 482.796 C 243.983 483.782, 241.602 503.387, 239.472 514.928 C 238.046 522.650, 237.534 523.803, 234.305 526.555 C 231.217 529.189, 230.874 529.895, 231.823 531.668 C 234.250 536.205, 255.332 536.220, 258.214 531.687 C 259.390 529.838, 259.181 529.249, 256.448 526.715 L 253.897 524.349 255.455 511.925 C 259.186 482.185, 259.772 480.505, 265.697 482.539 C 267.623 483.200, 269.210 484.987, 270.769 488.251 C 272.553 491.984, 273.556 493, 275.460 493 C 278.536 493, 279.026 492.147, 279.700 485.618 C 280.218 480.601, 278.702 473.024, 277.172 472.981 C 261.311 472.534, 229.506 472.697, 228.553 473.230 M 299.092 473.908 C 297.942 475.058, 297 476.850, 297 477.888 C 297 479.908, 280.224 513.632, 275.655 520.798 C 274.148 523.162, 272.146 525.367, 271.207 525.700 C 268.431 526.682, 266 529.183, 266 531.057 C 266 535.953, 285.522 536.294, 287.388 531.430 C 288.113 529.542, 287.194 527.288, 285.423 526.609 C 283.645 525.927, 283.628 522.074, 285.392 519.750 C 287.013 517.615, 294.201 516.503, 300.387 517.431 C 304.619 518.065, 304.976 518.355, 305.596 521.658 C 306.161 524.671, 305.864 525.570, 303.621 527.650 C 300.229 530.796, 301.458 533.620, 306.642 534.593 C 312.653 535.720, 325.193 534.251, 327.268 532.177 C 329.538 529.907, 328.680 527.403, 324.976 525.487 C 322.041 523.970, 320.900 520.144, 313.950 488.500 C 311.437 477.055, 309.681 473.006, 307.224 472.986 C 306.276 472.979, 304.529 472.712, 303.342 472.394 C 301.914 472.011, 300.478 472.522, 299.092 473.908 M 552.092 473.908 C 550.942 475.058, 550 476.850, 550 477.888 C 550 479.908, 533.224 513.632, 528.655 520.798 C 527.148 523.162, 525.146 525.367, 524.207 525.700 C 523.268 526.032, 521.636 527.023, 520.580 527.902 C 518.781 529.400, 518.711 529.374, 519.461 527.500 C 519.901 526.400, 520.477 523.205, 520.742 520.400 C 521.148 516.088, 520.935 515.189, 519.363 514.586 C 517.981 514.055, 516.812 514.723, 514.807 517.186 C 508.005 525.546, 507.371 526, 502.498 526 C 499.952 526, 496.944 525.505, 495.814 524.900 C 493.908 523.881, 493.809 523.224, 494.453 515.849 C 494.834 511.476, 495.998 502.431, 497.039 495.751 C 498.804 484.422, 499.135 483.445, 501.966 481.230 C 505.573 478.406, 505.785 476.663, 502.777 474.557 C 499.991 472.605, 484.714 472.418, 481 474.290 C 477.766 475.920, 477.216 479.493, 479.937 481.193 C 481.679 482.281, 481.999 483.494, 481.994 488.991 C 481.988 495.503, 480.110 509.856, 477.966 519.769 C 477.050 524.005, 476.254 525.334, 473.913 526.545 C 470.672 528.221, 469.869 532.352, 472.582 533.393 C 473.452 533.727, 481.667 534, 490.838 534 C 500.010 534, 508.942 534.410, 510.688 534.910 C 514.122 535.895, 515.906 535.045, 517.845 531.500 C 518.729 529.884, 518.945 529.817, 518.970 531.152 C 519.058 535.965, 538.551 536.218, 540.388 531.430 C 541.113 529.542, 540.194 527.288, 538.423 526.609 C 536.645 525.927, 536.628 522.074, 538.392 519.750 C 540.013 517.615, 547.201 516.503, 553.387 517.431 C 557.619 518.065, 557.976 518.355, 558.596 521.658 C 559.161 524.671, 558.864 525.570, 556.621 527.650 C 553.229 530.796, 554.458 533.620, 559.642 534.593 C 565.653 535.720, 578.193 534.251, 580.268 532.177 C 582.538 529.907, 581.680 527.403, 577.976 525.487 C 575.041 523.970, 573.900 520.144, 566.950 488.500 C 564.437 477.055, 562.681 473.006, 560.224 472.986 C 559.276 472.979, 557.529 472.712, 556.342 472.394 C 554.914 472.011, 553.478 472.522, 552.092 473.908 M 604.358 472.906 C 595.128 475.247, 589.533 482.148, 589.533 491.195 C 589.533 498.580, 591.274 500.947, 601.929 508.047 C 606.507 511.098, 611.096 514.635, 612.126 515.908 C 615.849 520.505, 613.627 525.325, 607.190 526.612 C 602.094 527.631, 598.321 525.396, 594.713 519.222 C 590.588 512.164, 588.797 510.968, 586.059 513.447 C 583.542 515.724, 583.224 523.599, 585.473 527.947 C 588.801 534.384, 603.434 537.760, 614.304 534.600 C 624.497 531.637, 631.241 522.428, 629.605 513.708 C 628.477 507.697, 625.042 503.988, 616 499.018 C 604.867 492.899, 601.705 487.246, 606.850 482.658 C 611.093 478.873, 616.785 480.570, 621.401 486.995 C 625.179 492.253, 625.931 492.643, 629.066 490.965 C 631.942 489.426, 631.738 481.390, 628.709 476.898 C 626.691 473.905, 625.885 473.494, 621.959 473.446 C 619.506 473.416, 615.250 473.103, 612.500 472.751 C 609.750 472.398, 606.086 472.468, 604.358 472.906 M 662.168 472.934 C 643.562 473.452, 641.715 473.665, 640.418 475.441 C 638.478 478.097, 638.603 478.728, 641.626 481.529 L 644.252 483.963 643.067 493.731 C 641.826 503.971, 639.233 520.437, 638.458 523 C 638.209 523.825, 636.654 525.267, 635.003 526.203 C 631.757 528.045, 631.086 530.996, 633.464 532.970 C 635.677 534.807, 653.896 535.438, 657 533.785 C 660.643 531.845, 660.864 527.715, 657.409 526.140 C 654.720 524.915, 654.720 524.913, 655.399 516.762 C 655.773 512.278, 656.567 508.022, 657.162 507.305 C 658.661 505.499, 664.525 505.668, 666.429 507.571 C 667.293 508.436, 668 510.461, 668 512.071 C 668 514.653, 668.353 515, 670.972 515 C 673.704 515, 674.063 514.575, 675.418 509.750 C 677.357 502.843, 678.376 493.760, 677.516 491.050 C 676.429 487.625, 672.961 488.846, 670.558 493.500 C 668.579 497.335, 668.271 497.513, 663.101 497.807 L 657.708 498.115 658.290 492.480 C 658.610 489.381, 659.586 485.755, 660.459 484.423 C 661.910 482.207, 662.703 482, 669.731 482 C 677.203 482, 677.518 482.100, 681.097 485.595 C 684.280 488.703, 685.064 489.036, 686.889 488.059 C 688.456 487.221, 689 485.972, 688.998 483.215 C 688.997 478.777, 686.101 472.534, 684 472.437 C 683.175 472.399, 673.351 472.622, 662.168 472.934 M 704.812 473.242 C 703.937 473.934, 702.666 476.300, 701.988 478.500 C 700.775 482.435, 684.901 514.432, 681.045 520.715 C 679.960 522.483, 677.228 525.094, 674.973 526.517 C 668.367 530.687, 671.455 534.954, 681.101 534.985 C 690.629 535.016, 695.888 530.687, 690.896 526.922 C 688.890 525.409, 688.698 524.760, 689.546 522.350 C 690.770 518.870, 694.238 517.034, 699.625 517.015 C 707.412 516.987, 709.925 517.960, 710.895 521.376 C 711.652 524.045, 711.423 524.829, 709.322 526.761 C 705.836 529.966, 706.540 533.129, 711 534.303 C 714.508 535.225, 728.129 534.655, 731.257 533.455 C 734.204 532.324, 734.529 528.834, 731.877 526.812 C 730.570 525.816, 728.979 524.572, 728.342 524.047 C 727.706 523.523, 725.738 516.885, 723.970 509.297 C 717.049 479.586, 715.986 475.560, 714.765 474.417 C 712.756 472.536, 706.621 471.812, 704.812 473.242 M 340 474.290 C 336.766 475.920, 336.216 479.493, 338.937 481.193 C 340.703 482.296, 340.999 483.490, 340.996 489.491 C 340.992 496.183, 339.297 508.852, 336.928 519.899 C 336.047 524.008, 335.242 525.341, 332.913 526.545 C 330.948 527.561, 330 528.817, 330 530.404 C 330 533.795, 334.503 535.418, 341.489 534.545 C 349.463 533.548, 352.438 529.821, 347.833 526.596 C 345.695 525.098, 345.683 524.933, 346.938 513.789 C 347.636 507.580, 348.506 500.705, 348.869 498.511 L 349.530 494.522 361.375 513.282 C 367.890 523.599, 374.171 532.707, 375.333 533.521 C 378.505 535.743, 382.704 535.386, 384.408 532.750 C 385.208 531.513, 386.599 524.875, 387.500 518 C 389.850 500.057, 391.905 487.896, 393.099 484.880 C 393.669 483.439, 395.230 481.761, 396.568 481.151 C 399.584 479.777, 399.880 475.541, 397.066 474.035 C 394.665 472.751, 385.964 472.683, 382.701 473.923 C 379.136 475.279, 378.543 477.885, 381.164 480.675 C 383.352 483.004, 383.367 483.205, 382.136 494.269 C 379.867 514.656, 381.188 514.690, 368 493.903 C 361.675 483.933, 355.612 475.151, 354.527 474.388 C 352.074 472.661, 343.348 472.602, 340 474.290 M 427.337 474.140 C 424.017 475.810, 423.744 478.794, 426.681 481.322 C 429.136 483.434, 429.192 483.757, 428.537 492 C 428.165 496.675, 426.973 505.675, 425.887 512 C 424.004 522.964, 423.744 523.642, 420.317 526.555 C 417.217 529.190, 416.873 529.895, 417.823 531.668 C 419.064 533.988, 423.350 534.972, 432.282 534.989 C 443.128 535.010, 448.478 530.509, 442.367 526.505 C 439.813 524.832, 439.753 524.565, 440.390 517.714 C 440.751 513.828, 441.541 510.053, 442.146 509.324 C 442.855 508.470, 445.598 507.998, 449.872 507.994 C 462.092 507.984, 469.594 504.307, 473.087 496.616 C 476.821 488.394, 474.650 479.399, 468 475.534 C 464.892 473.728, 462.538 473.475, 447 473.276 C 435.926 473.133, 428.706 473.451, 427.337 474.140 M 745.854 474.128 C 742.081 475.510, 741.570 478.644, 744.681 481.322 C 747.136 483.434, 747.192 483.757, 746.537 492 C 746.165 496.675, 744.973 505.675, 743.887 512 C 741.991 523.038, 741.763 523.628, 738.206 526.679 C 735.115 529.330, 734.682 530.156, 735.593 531.654 C 737.298 534.454, 743.133 535.160, 761.500 534.786 C 779.820 534.413, 783.423 533.494, 788.689 527.847 C 791.482 524.852, 793.027 518.053, 791.974 513.386 C 791.047 509.273, 786.650 504.201, 783.278 503.355 C 780.142 502.568, 780.411 501.824, 784.672 499.500 C 795.547 493.567, 795.579 479.889, 784.729 474.964 C 781.102 473.317, 778.222 473.052, 764.500 473.101 C 755.700 473.132, 747.309 473.594, 745.854 474.128 M 136.362 481.765 C 135.322 482.437, 132.814 497.003, 133.588 497.878 C 134.650 499.078, 143.749 497.832, 145.969 496.182 C 149.696 493.411, 150.020 486.929, 146.602 483.511 C 144.103 481.012, 138.902 480.125, 136.362 481.765 M 445.609 482.823 C 445.086 483.670, 443.021 495.517, 443.008 497.750 C 443.002 498.598, 444.751 499, 448.444 499 C 455.860 499, 459.455 496.061, 459.455 489.999 C 459.455 484.552, 456.581 482, 450.448 482 C 448.067 482, 445.889 482.370, 445.609 482.823 M 764.308 482.788 C 763.369 483.386, 761.045 493.568, 761.008 497.250 C 760.994 498.593, 771.023 498.040, 773.928 496.537 C 778.501 494.172, 779.589 487.589, 776 484 C 773.948 481.948, 766.795 481.207, 764.308 482.788 M 191.435 500.434 C 189.546 504.523, 188 508.123, 188 508.434 C 188 508.746, 190.515 509, 193.588 509 L 199.176 509 198.507 504.750 C 197.583 498.874, 196.028 493, 195.396 493 C 195.107 493, 193.324 496.346, 191.435 500.434 M 298 493.175 C 298 493.491, 296.436 497.181, 294.525 501.375 L 291.050 509 296.909 509 L 302.768 509 301.399 501.815 C 300.646 497.863, 299.573 494.173, 299.015 493.615 C 298.457 493.057, 298 492.859, 298 493.175 M 551 493.175 C 551 493.491, 549.436 497.181, 547.525 501.375 L 544.050 509 549.909 509 L 555.768 509 554.399 501.815 C 553.646 497.863, 552.573 494.173, 552.015 493.615 C 551.457 493.057, 551 492.859, 551 493.175 M 700.178 500.250 C 698.427 504.238, 696.996 507.837, 696.998 508.250 C 696.999 508.663, 699.511 509, 702.579 509 L 708.159 509 707.532 505.750 C 705.898 497.283, 704.739 493, 704.081 493 C 703.685 493, 701.929 496.262, 700.178 500.250 M 760.250 508.198 C 759.614 508.965, 758.960 513.158, 758.797 517.516 L 758.500 525.441 761.500 526.019 C 766.110 526.907, 772.244 525.241, 774.750 522.420 C 779.259 517.346, 776.674 508.018, 770.750 507.989 C 769.513 507.983, 766.904 507.714, 764.954 507.391 C 762.542 506.992, 761.037 507.251, 760.250 508.198 M 110 542.500 L 110 547 453 547 L 796 547 796 542.500 L 796 538 453 538 L 110 538 110 542.500 M 204.535 579.750 C 204.161 580.712, 203.604 584.459, 203.297 588.075 C 202.759 594.419, 202.840 594.729, 205.619 596.915 C 207.799 598.630, 209.319 599.048, 211.874 598.633 C 216.676 597.854, 218.759 595.522, 219.909 589.638 C 221.762 580.154, 221.711 578.500, 219.559 578.500 C 217.950 578.500, 217.402 579.670, 216.355 585.342 C 214.989 592.740, 213.737 595, 211 595 C 207.546 595, 206.694 592.522, 207.865 585.878 C 208.461 582.494, 208.708 579.337, 208.415 578.863 C 207.508 577.394, 205.249 577.911, 204.535 579.750 M 225.579 578.872 C 224.448 580.703, 222.335 596.925, 223.073 598.118 C 224.227 599.985, 226.805 597.517, 227.191 594.177 C 227.468 591.775, 228.001 591.443, 232.374 590.940 C 237.804 590.317, 240 588.279, 240 583.866 C 240 582.155, 239.159 580.524, 237.777 579.557 C 235.409 577.898, 226.491 577.397, 225.579 578.872 M 241.636 578.780 C 240.866 580.026, 246.218 597.870, 247.511 598.366 C 248.154 598.613, 249.120 598.519, 249.656 598.157 C 251.556 596.876, 261.117 579.998, 260.504 579.007 C 259.134 576.790, 257.240 578.301, 253.613 584.500 C 249.982 590.707, 248 592.537, 248 589.682 C 248 588.956, 247.308 586.031, 246.461 583.182 C 245.062 578.469, 242.994 576.583, 241.636 578.780 M 264.659 580.054 C 258.144 585.179, 259.337 595.828, 266.672 598.014 C 270.966 599.293, 276 598.040, 276 595.691 C 276 593.489, 274.954 593.064, 272.400 594.227 C 268.529 595.991, 265 593.853, 265 589.744 C 265 587.930, 265.736 585.395, 266.634 584.112 C 268.095 582.027, 268.787 581.847, 273.134 582.423 C 277.079 582.947, 278 582.785, 278 581.570 C 278 577.776, 268.873 576.739, 264.659 580.054 M 288.348 583.148 C 289.439 592.174, 291.356 598.500, 293 598.500 C 293.826 598.500, 296.050 595.578, 297.949 592 L 301.398 585.500 302.575 591.326 C 303.826 597.515, 305.124 599.659, 306.941 598.536 C 308.655 597.477, 317.143 580.040, 316.473 578.956 C 315.064 576.676, 313.163 578.461, 309.968 585.066 L 306.550 592.132 305.315 585.439 C 304.635 581.758, 303.856 578.522, 303.583 578.249 C 302.282 576.949, 299.761 579.442, 297.297 584.466 C 295.805 587.510, 294.300 590, 293.954 590 C 293.607 590, 292.913 587.416, 292.412 584.257 C 291.708 579.824, 291.067 578.432, 289.600 578.155 C 287.864 577.826, 287.756 578.255, 288.348 583.148 M 320.446 579.087 C 319.501 580.616, 321.552 582.386, 323.433 581.664 C 324.295 581.333, 325 580.374, 325 579.531 C 325 577.784, 321.465 577.439, 320.446 579.087 M 353.667 578.667 C 353.300 579.033, 353 580.580, 353 582.104 C 353 584.715, 352.797 584.841, 349.477 584.303 C 346.930 583.889, 345.423 584.212, 344.034 585.469 C 341.781 587.508, 340.574 592.084, 341.511 595.035 C 342.357 597.700, 346.489 599.344, 348.985 598.008 C 350.238 597.338, 350.952 597.356, 351.188 598.065 C 351.381 598.642, 352.267 598.835, 353.157 598.493 C 354.701 597.901, 357 587.113, 357 580.459 C 357 578.144, 355.172 577.161, 353.667 578.667 M 423.750 579.080 C 422.570 579.768, 422 581.335, 422 583.895 C 422 586.420, 421.331 588.296, 420 589.500 C 417.215 592.021, 417.459 595.599, 420.555 597.628 C 422.683 599.022, 423.723 599.114, 426.780 598.176 C 429.164 597.444, 430.791 597.391, 431.425 598.025 C 433.534 600.134, 434.954 598.990, 434.869 595.250 C 434.822 593.188, 435.109 590.263, 435.508 588.750 C 436.082 586.572, 435.891 586, 434.592 586 C 433.689 586, 432.480 587.237, 431.905 588.750 C 430.950 591.260, 430.770 591.340, 429.833 589.667 C 429.032 588.234, 429.302 587.308, 431.069 585.427 C 433.004 583.366, 433.165 582.658, 432.186 580.510 C 430.953 577.804, 427.071 577.146, 423.750 579.080 M 448.540 579.250 C 447.864 581.382, 446 593.546, 446 595.832 C 446 597.836, 446.497 598, 452.577 598 C 458.513 598, 459.439 597.715, 462.077 595.077 C 466.703 590.451, 465.739 581.569, 460.343 579.110 C 456.996 577.585, 449.039 577.679, 448.540 579.250 M 533.450 579.271 C 533.181 579.970, 532.371 584.253, 531.650 588.789 C 530.570 595.575, 530.569 597.227, 531.644 598.119 C 533.180 599.394, 534.480 596.852, 535.540 590.500 L 536.207 586.500 537.854 590.917 C 538.759 593.347, 540.037 595.513, 540.693 595.732 C 541.349 595.950, 543.097 594.300, 544.576 592.064 C 546.055 589.829, 547.446 588, 547.667 588 C 547.888 588, 547.778 590.192, 547.423 592.872 C 546.783 597.690, 547.562 599.511, 549.695 598.184 C 550.861 597.458, 554.067 579.400, 553.186 578.519 C 551.725 577.059, 549.735 578.560, 545.919 584 C 543.604 587.300, 541.611 590, 541.489 590 C 541.367 590, 540.284 587.300, 539.080 584 C 536.991 578.270, 534.603 576.264, 533.450 579.271 M 605.001 581.883 C 600.716 586.041, 600.220 587, 602.351 587 C 603.418 587, 603.528 588.096, 602.875 592.225 C 602.385 595.325, 602.429 597.829, 602.982 598.382 C 604.429 599.829, 606.998 597.118, 607.014 594.128 C 607.038 589.535, 608.141 587, 610.117 587 C 611.152 587, 612 586.325, 612 585.500 C 612 584.675, 611.325 584, 610.500 584 C 608.313 584, 608.665 582.241, 611 581.500 C 612.100 581.151, 613 580.221, 613 579.433 C 613 576.763, 609.021 577.982, 605.001 581.883 M 643 581.450 C 643 583.703, 640.144 584.771, 635.515 584.249 C 629.807 583.605, 626.771 586.613, 627.204 592.480 C 627.442 595.699, 628.030 596.738, 630.201 597.774 C 633.569 599.380, 638.223 598.395, 637.793 596.165 C 637.596 595.142, 636.416 594.560, 634.493 594.536 C 632.120 594.508, 631.431 594.010, 631.165 592.135 C 630.704 588.873, 632.104 587.804, 637.291 587.458 L 641.736 587.160 641.325 591.330 C 640.823 596.419, 641.789 598.013, 645.544 598.289 C 647.588 598.439, 648.527 597.993, 648.784 596.750 C 649.003 595.694, 648.546 595, 647.632 595 C 645.470 595, 644.919 593.654, 645.629 590.103 C 646.050 587.999, 646.835 587, 648.066 587 C 650.749 587, 651.538 584.953, 649.101 584.316 C 647.904 584.003, 647 582.956, 647 581.883 C 647 580.667, 646.292 580, 645 580 C 643.900 580, 643 580.653, 643 581.450 M 426.667 581.667 C 425.382 582.951, 425.996 584.939, 427.500 584.362 C 428.325 584.045, 429 583.159, 429 582.393 C 429 580.923, 427.788 580.545, 426.667 581.667 M 229 583.418 C 229 584.198, 228.727 585.548, 228.393 586.418 C 227.943 587.592, 228.410 588, 230.202 588 C 233.548 588, 236.474 585.679, 235.694 583.645 C 234.890 581.549, 229 581.350, 229 583.418 M 451.557 586.750 C 451.188 589.362, 450.656 592.288, 450.376 593.250 C 449.971 594.637, 450.478 595, 452.822 595 C 456.653 595, 459.840 592.298, 460.589 588.414 C 461.324 584.604, 459.072 582, 455.042 582 C 452.445 582, 452.175 582.367, 451.557 586.750 M 319.699 585.343 C 319.415 586.082, 318.872 589.178, 318.491 592.222 C 317.812 597.659, 318.509 599.540, 320.701 598.184 C 321.964 597.403, 324.257 586.224, 323.428 584.884 C 322.599 583.542, 320.280 583.827, 319.699 585.343 M 326.584 585.878 C 325.550 589.446, 324.832 596.919, 325.429 597.885 C 326.750 600.023, 328.929 597.655, 329.570 593.384 C 329.986 590.609, 330.918 588.579, 332.057 587.969 C 334.589 586.614, 335.256 588.113, 334.465 593.385 C 333.777 597.974, 334.616 599.473, 337.036 597.978 C 338.041 597.357, 338.480 595.184, 338.488 590.794 L 338.500 584.500 332.777 584.378 C 328.288 584.282, 326.952 584.606, 326.584 585.878 M 360.174 586.314 C 357.559 589.098, 357.234 595.119, 359.593 597.078 C 362.235 599.270, 367.991 598.730, 370.129 596.089 C 372.529 593.125, 372.550 587.808, 370.171 585.655 C 367.516 583.252, 362.756 583.566, 360.174 586.314 M 374 584.924 C 374 587.142, 376.434 596.614, 377.296 597.750 C 378.817 599.754, 379.644 599.259, 382.306 594.751 L 384.816 590.501 385.506 594.181 C 386.195 597.855, 387.810 599.400, 389.660 598.157 C 390.766 597.415, 397 586.089, 397 584.822 C 397 584.370, 396.189 584, 395.197 584 C 394.071 584, 392.606 585.597, 391.297 588.250 C 389.152 592.598, 388.816 592.463, 387.564 586.750 C 386.691 582.766, 384.369 583.372, 381.819 588.250 L 379.597 592.500 378.657 588.250 C 377.962 585.113, 377.229 584, 375.858 584 C 374.836 584, 374 584.416, 374 584.924 M 398.565 585.928 C 396.135 588.614, 397.371 591.924, 401.080 592.666 C 405.317 593.513, 404.665 595.211, 400.250 594.830 C 395.558 594.426, 395 596.996, 399.500 598.284 C 404.169 599.621, 408 597.737, 408 594.102 C 408 591.619, 407.447 590.973, 404.491 589.997 C 400.116 588.553, 400.986 586.587, 405.615 587.456 C 408.187 587.938, 409 587.745, 409 586.652 C 409 583.531, 401.223 582.991, 398.565 585.928 M 469.025 585.975 C 463.267 591.733, 467.767 600.351, 475.517 598.406 C 480.476 597.162, 482.826 588.963, 479.171 585.655 C 476.668 583.390, 471.446 583.554, 469.025 585.975 M 485.025 585.975 C 479.267 591.733, 483.767 600.351, 491.517 598.406 C 496.476 597.162, 498.826 588.963, 495.171 585.655 C 492.668 583.390, 487.446 583.554, 485.025 585.975 M 500.557 584.909 C 499.390 586.802, 498.113 597.513, 498.955 598.355 C 500.430 599.830, 502.998 597.157, 503.015 594.128 C 503.034 590.840, 504.091 589.140, 507.036 587.660 C 511.123 585.605, 510.484 584.173, 505.514 584.249 C 502.988 584.287, 500.758 584.584, 500.557 584.909 M 511.596 585.306 C 508.710 587.416, 509.886 591.319, 513.750 592.457 C 518.169 593.758, 517.859 595.227, 513.250 594.830 C 510.533 594.596, 509.500 594.896, 509.500 595.920 C 509.500 597.988, 514.195 599.257, 517.374 598.048 C 522.156 596.230, 521.981 591.176, 517.096 590.023 C 514.017 589.296, 514.472 587.524, 517.773 587.385 C 522.112 587.201, 522.314 587.083, 521 585.500 C 519.467 583.653, 514.011 583.540, 511.596 585.306 M 557.250 584.662 C 556.563 584.940, 556 585.825, 556 586.629 C 556 587.758, 556.797 587.941, 559.500 587.434 C 562.324 586.904, 563 587.089, 563 588.389 C 563 589.545, 562.068 590, 559.700 590 C 554.114 590, 552.140 594.007, 556.004 597.504 C 557.621 598.967, 558.466 599.109, 560.381 598.236 C 562.010 597.494, 563.078 597.478, 563.785 598.185 C 566.286 600.686, 568.689 589.428, 566.363 586.108 C 564.939 584.075, 560.464 583.365, 557.250 584.662 M 571.569 584.889 C 571.356 585.233, 570.876 587.312, 570.503 589.508 C 570.131 591.703, 569.650 594.175, 569.436 595 C 569.221 595.825, 569.451 597.146, 569.947 597.936 C 571.280 600.060, 574 597.486, 574 594.100 C 574 590.810, 576.606 586.912, 578.356 587.583 C 579.286 587.940, 579.528 589.642, 579.205 593.541 C 578.502 602.018, 582.222 600.466, 583.521 591.741 C 584.462 585.419, 583.226 584.008, 576.872 584.152 C 574.168 584.212, 571.782 584.544, 571.569 584.889 M 586.975 586.565 C 585.517 590.400, 585.790 596.581, 587.479 597.983 C 588.557 598.877, 589.748 598.935, 591.869 598.195 C 593.713 597.553, 595.130 597.530, 595.733 598.133 C 597.382 599.782, 598.810 596.801, 599.564 590.140 C 600.223 584.314, 600.131 583.828, 598.437 584.154 C 597.251 584.383, 596.220 585.935, 595.547 588.507 C 594.243 593.486, 593.283 595, 591.432 595 C 590.263 595, 590.108 593.935, 590.629 589.500 C 591.184 584.780, 591.040 584, 589.613 584 C 588.699 584, 587.512 585.154, 586.975 586.565 M 614.250 584.662 C 613.563 584.940, 613 585.824, 613 586.627 C 613 587.693, 613.982 588.008, 616.645 587.793 C 618.890 587.613, 620.458 587.980, 620.728 588.750 C 621.019 589.578, 620.104 590, 618.018 590 C 613.916 590, 611 591.612, 611 593.880 C 611 597.434, 616.884 600.615, 618.530 597.951 C 618.981 597.222, 619.567 597.225, 620.456 597.964 C 622.297 599.491, 623.675 597.426, 624.496 591.911 C 625.031 588.317, 624.818 586.961, 623.518 585.661 C 621.948 584.091, 616.989 583.557, 614.250 584.662 M 651.975 586.565 C 650.517 590.400, 650.790 596.581, 652.479 597.983 C 653.557 598.877, 654.748 598.935, 656.869 598.195 C 658.713 597.553, 660.130 597.530, 660.733 598.133 C 662.382 599.782, 663.810 596.801, 664.564 590.140 C 665.223 584.314, 665.131 583.828, 663.437 584.154 C 662.251 584.383, 661.220 585.935, 660.547 588.507 C 659.243 593.486, 658.283 595, 656.432 595 C 655.263 595, 655.108 593.935, 655.629 589.500 C 656.184 584.780, 656.040 584, 654.613 584 C 653.699 584, 652.512 585.154, 651.975 586.565 M 668.557 584.909 C 667.390 586.802, 666.113 597.513, 666.955 598.355 C 668.430 599.830, 670.998 597.157, 671.015 594.128 C 671.034 590.840, 672.091 589.140, 675.036 587.660 C 679.123 585.605, 678.484 584.173, 673.514 584.249 C 670.988 584.287, 668.758 584.584, 668.557 584.909 M 679.455 586.455 C 677.079 588.830, 676.373 592.202, 677.588 595.370 C 678.493 597.728, 684.183 599.261, 687.437 598.024 C 691.223 596.585, 690.152 594.646, 685.527 594.566 C 683.391 594.530, 681.489 593.943, 681.255 593.250 C 680.954 592.359, 682.292 592, 685.917 592 C 690.121 592, 691 591.693, 691 590.223 C 691 584.302, 683.918 581.991, 679.455 586.455 M 693.615 586.833 C 692.075 594.920, 691.926 597.836, 693.017 598.510 C 694.733 599.571, 696.220 597.586, 696.915 593.307 C 697.374 590.483, 698.232 589.176, 700.266 588.201 C 704.573 586.137, 703.740 584.167, 698.561 584.167 C 694.546 584.167, 694.074 584.421, 693.615 586.833 M 347.385 587.766 C 344.205 589.858, 345.190 595.495, 348.620 594.835 C 350.021 594.565, 350.500 593.605, 350.500 591.070 C 350.500 587.611, 349.398 586.442, 347.385 587.766 M 363.229 588.171 C 361.515 589.885, 361.693 593.945, 363.513 594.643 C 365.784 595.515, 368.141 593.015, 367.801 590.094 C 367.468 587.246, 365.136 586.264, 363.229 588.171 M 472.200 588.200 C 471.540 588.860, 471 590.660, 471 592.200 C 471 594.343, 471.474 595, 473.021 595 C 475.762 595, 477.782 590.647, 476.025 588.530 C 474.494 586.686, 473.776 586.624, 472.200 588.200 M 488.200 588.200 C 487.540 588.860, 487 590.660, 487 592.200 C 487 594.343, 487.474 595, 489.021 595 C 491.762 595, 493.782 590.647, 492.025 588.530 C 490.494 586.686, 489.776 586.624, 488.200 588.200 M 682 588.500 C 680.939 589.779, 681.215 590, 683.878 590 C 685.986 590, 687 589.513, 687 588.500 C 687 587.675, 686.155 587, 685.122 587 C 684.090 587, 682.685 587.675, 682 588.500 M 423.036 591.456 C 421.562 593.232, 422.488 595, 424.892 595 C 427.479 595, 428.039 594.036, 426.701 591.892 C 425.281 589.618, 424.626 589.540, 423.036 591.456 M 559.750 592.689 C 557.954 593.159, 557.515 594.182, 558.631 595.298 C 559.451 596.118, 563 594.222, 563 592.965 C 563 591.960, 562.653 591.931, 559.750 592.689 M 617.250 592.780 C 614.976 593.143, 614.286 594.441, 615.853 595.409 C 616.769 595.975, 620.830 593.412, 619.998 592.792 C 619.724 592.588, 618.487 592.582, 617.250 592.780" stroke="none" fill="#000000" fill-rule="evenodd"/>
</svg>